<?xml version="1.0" encoding="UTF-8"?><svg id="Capa_1" xmlns="http://www.w3.org/2000/svg" viewBox="0 0 624.35 705.66"><defs><style>.cls-1{fill:#f2b968;}</style></defs><path d="M624.33,294.07l.02,411.59-177.94-.58-240.93-.26-204.95-.3-.24-381.27-.29-78.3L309.1,0l137.85,107.75,61.57,48.46,16.89,13.28,65.56,51.24,32.92,25.75.44,47.59ZM351.53,627.59c-29.24,4.05-57.69,5.24-86.12-.5-21.21-4.28-40.95-9.79-61.02-18.69l-.34,77.86c0,1.73-.44,4.05.86,4.87.78.5,2.01,1.21,3.96,1.21l396.21-.05c3.3,0,5.02-2.39,4.99-4.87l-.24-18.4-.06-363.51-.29-49.08c-.02-2.85-1.14-5.06-3.46-6.9l-94.73-75.04-63.25-49.86-78.35-61.58-59.88-46.98-15.26,11.5-88.98,70.57c-3.42,2.32-2.28,4.72-2.11,7.86,1.11,20.15.54,39.85.18,60.84,22.01-9.14,44.04-16.79,67.8-19.91,34.85-4.57,69.06-3.47,102.7,5.78,56.15,15.44,105.36,49.45,138.54,97.26,10.53,15.17,18.65,31.04,25.8,48.05,20,47.54,21.51,100.97,10.27,151.35l-.2,154.28-116.7-.11c-4.19,0-7.52-.69-11.58,1.42-14.79,6.69-29.53,13.43-45.51,17.18l-23.25,5.46h.02ZM77.56,474.8c-13.61-32.91-18.12-66.85-16.5-101.57,2.94-62.98,33.99-123.8,80.81-165.47,16.79-14.58,34.29-26.92,54.11-37.13l-.03-64.41-68.08,53.42-54.41,43.67-42.8,34.12c-6.12,4.88-12.8,8.64-17.96,14.51l.25,53.51.34,169.22,64.26.15v-.02ZM204.51,475.11l324.96-.19c7.29-15.28,11.33-30.6,14.23-46.85,17.14-96.02-28.06-192.15-111.22-241.72l-21.75-11.56c-36.4-17.35-76.7-23.97-117-21.74-22.81,1.26-43.49,5.59-64.65,13.42-8.6,3.19-17.58,4.42-25.05,11.06l.2,104.67c12.12-.29,22.5.45,33.59,4.01,27.12,8.72,47.53,32.59,51.75,60.93s-6.09,52.33-26.37,69.96c-28.78,25.03-58.37,15.02-58.41,20.83l-.27,37.19h0ZM196.05,474.88l.64-40.93c-28.99-7.07-51.91-29.48-58.38-58.39-1.45-8.94-3.25-17.02-1.07-25.7,3.61-33.24,27.06-57.18,58.87-66l-.28-102.31c-7.39,1.37-12.59,5.89-18.4,9.63-13.24,8.52-25.2,17.37-36.53,28.78-37.09,37.36-65.3,91.56-70.55,144.57-2.75,27.76-.7,55.23,6.47,82.16l9.06,28.23,110.16-.04h.01ZM440.37,595l97.01-.05c1.52,0,3.13-1.41,3.13-2.79l.06-88.81-.41-26.79c-2.21,3.2-1.71,5.22-3.75,6.9-5.15,12.43-12.26,23-19.51,34.42-12.43,19.57-28.1,36.09-45.31,51.49-5.74,5.14-11.67,8.69-17.47,13.72l-13.76,11.92h0ZM195.93,483.05l-53.49-.37h-53.01c21.45,48.23,59.31,87.88,106.47,112.03l.02-111.67h0ZM196.31,689.99l-.02-85.13c-10.38-4.6-18.83-10.47-27.82-16.66s-17.07-11.82-24.49-19.44c-27.32-22.43-48.28-54.66-64.01-86.1l-60.52.24c-3.31.01-5.75.86-6.11,4.54l.07,80.89.12,118.58c0,1.46.44,4.25,1.91,4.33l22.17,1.18,152.68-.09c1.27.17,6.02-.26,6.02-2.34h0ZM367.11,615.2c33.01-8.49,62.89-23.12,89.34-43.91,29.69-23.34,53.77-52.11,69.18-87.08l-41.22-.86-42.24.04-189.58-.43-48.65.65c1.08,7.72.43,13.7.43,20.71l-.08,94.7c28.21,12.97,57.41,21.26,88.07,22.83,16.4.84,32.24,1.59,48.06-1.48l26.68-5.18h.01Z"/><ellipse class="cls-1" cx="213.74" cy="358.86" rx="76.89" ry="78.23"/></svg>