<?xml version="1.0" encoding="UTF-8"?><svg id="Capa_1" xmlns="http://www.w3.org/2000/svg" viewBox="0 0 900 900"><defs><style>.cls-1{fill:#fff;}.cls-2{fill:#f2b968;}</style></defs><path d="M0,900V0h900v900H0ZM490.05,426.17v-57.32c-1.81-1.91-3.48-3.36-5.51-4.78l-18.82-14.75-15.41-12.07-28.5,22.59-10.45,7.97v58.36h78.68s.01,0,.01,0ZM363.36,450.81l-5.73.45-.07,39.18-5.06-4.42-5.96-5.98-4.37-4.29-9.58-9.62-8.9-8.89-7-7.44c-.35-.38-1.65-.56-2.31-.4l.03,53.51,5.64-.51.09-40.13,11.12,10.95,3.1,3.15,15.23,15.47,13.76,13.39v-54.43h0ZM651.56,501.75c7.5-3.29,10.58-13.04,5.35-19.63-7.52-9.47-28.46-8.08-28.08-18.63.08-2.25,1.36-4.27,3.3-5.63,5.76-4.04,14.59-2.86,20.65,1.24,1.46-1.25,2.58-2.68,3.07-4.44-6.88-4.63-14.99-5.65-22.68-3.44-6.08,1.74-10.27,6.58-10.44,13.1-.08,2.83,1.28,6.23,3.37,8.32,2.7,2.7,6.26,4.23,9.79,5.54l9.86,3.65c2.44.9,5.14,2.64,6.6,4.82,2.52,3.76.5,8.43-3.32,10.23-8,3.78-16.73,1.49-23.83-3.57l-3.53,4.55c8.88,6.32,20.17,8.18,29.9,3.9h0ZM283.76,451.41l-.08,32.46c-.01,6.21-4.57,11.7-10.24,13.66-12.61,4.35-25.64-3.02-25.68-12.72l-.13-33.62c-2-.42-3.83-.49-6.02-.22l-.06,30.25c-.02,10.29,5.27,18.83,15.52,21.68,10.94,3.04,24.99.29,30.04-9.85,1.43-2.87,2.71-6.43,2.71-9.7l.05-32.39c-2.24-.32-4.18-.32-6.11.43v.02ZM394.09,450.79h-5.79v52.18h5.79v-52.18ZM467,502.49v-51.56l-5.58-.14-.54,5.68v17.77l-36.96-.03-.07-23.27c-2.2-.18-3.87-.16-5.74.28v51.4l5.75-.07.05-22.56h37.22l-.14,8.15-.09,14.26c2.05.77,4.29.9,6.1.07v.02ZM535.39,503.02l6.41-.11-13.15-24.51-9.04-16.96-5.84-10.56c-.24-.44-1.1.38-1.44,1l-21.87,40.45-5.8,10.49,6.22.09,5.93-10.49,32.74.04,5.82,10.55h.02ZM598.14,451.24l-.17,33.56c-.02,4.25-3.02,8.57-6.39,10.64-8.11,4.99-18.37,4.57-25.46-1.74-2.61-2.33-4.42-6.36-4.43-9.9l-.13-32.91h-5.67l.06,32.96c.01,5.32,2.49,10.68,6.31,14.13,9.15,8.26,25.91,7.94,34.72.52,4.38-3.69,7.06-9.5,7.08-15.39l.14-32.13c-2.05-.26-3.7-.17-6.05.25h-.01ZM425.97,546.67h-13.18l-.08-20.74c-.59-.46-2.74-.32-2.74.3l.03,22.72,16.4.03c.51,0,1.53-.69,1.75-1.09.17-.32-.05-1.44-.4-1.4l-1.78.18h0ZM457.44,543.46l2.85,5.08c.3.54,2.15.7,2.28.15.11-.45-.16-1.27-.48-1.86l-10.03-18.21-2.52-3.61-4.81,8.01-8.17,15.14c.24.47,2.25.72,2.53.23l2.61-4.57,12.88-.1,2.88-.27h-.02ZM492.88,545.68c.96-1.15,1.42-3.5.84-5.13-.42-1.18-1.87-2.42-3.38-3.48,2.38-2.04,3.61-5.48,1.69-8.23-1.25-1.78-3.95-3.21-6.21-3.21h-12.48l-.07,22.58c.31.47,1.14.75,1.72.73l4.19-.15,6.57-.12c2.88-.05,4.98-.45,7.14-3.02v.03Z"/><path class="cls-1" d="M492.88,545.68c-2.15,2.56-4.26,2.96-7.14,3.02l-6.57.12-4.19.15c-.58.02-1.41-.27-1.72-.73l.07-22.58h12.48c2.25,0,4.96,1.42,6.21,3.2,1.92,2.74.69,6.19-1.69,8.23,1.51,1.06,2.96,2.3,3.38,3.48.58,1.63.13,3.98-.84,5.13v-.02ZM489.92,530.72c-.27-.96-2.26-2.67-3.29-2.68l-10.93-.1-.02,7.81,12.36-.07c1.14-1.32,2.45-2.96,1.89-4.96h-.01ZM491.34,542.16c-.19-2.54-2.89-4.08-5.11-4.06l-10.57.08.09,8.51,10.88-.08c2.26-.02,4.9-1.97,4.71-4.46h0Z"/><path class="cls-1" d="M457.44,543.46l-2.88.27-12.88.1-2.61,4.57c-.28.49-2.28.24-2.53-.23l8.17-15.14,4.81-8.01,2.52,3.61,10.03,18.21c.32.58.6,1.4.48,1.86-.13.55-1.98.39-2.28-.15l-2.85-5.08h.02ZM456.1,541.19l-6.58-12.1-6.45,12.22,13.03-.12Z"/><path class="cls-1" d="M425.97,546.67l1.78-.18c.35-.03.57,1.08.4,1.4-.22.4-1.24,1.09-1.75,1.09l-16.4-.03-.03-22.72c0-.62,2.15-.76,2.74-.3l.08,20.74h13.18Z"/><path class="cls-1" d="M363.36,450.81v54.43l-13.76-13.39-15.23-15.47-3.1-3.15-11.12-10.95-.09,40.13-5.64.51-.03-53.51c.65-.16,1.95.03,2.31.4l7,7.44,8.9,8.89,9.58,9.62,4.37,4.29,5.96,5.98,5.06,4.42.07-39.18,5.73-.45h0Z"/><path class="cls-1" d="M467,502.49c-1.81.83-4.05.7-6.1-.07l.09-14.26.14-8.16h-37.22l-.05,22.57-5.75.07v-51.4c1.88-.44,3.54-.46,5.74-.28l.07,23.27,36.94.03v-17.77l.55-5.68,5.58.14v51.56-.02Z"/><path class="cls-1" d="M535.39,503.02l-5.82-10.55-32.74-.04-5.93,10.49-6.22-.09,5.8-10.49,21.87-40.45c.33-.62,1.19-1.43,1.44-1l5.84,10.56,9.04,16.96,13.15,24.51-6.41.11h-.02ZM526.43,486.62l-13.1-24.28-13.08,24.45,26.18-.16h0Z"/><path class="cls-1" d="M283.76,451.41c1.94-.76,3.87-.75,6.11-.43l-.05,32.39c0,3.27-1.29,6.83-2.71,9.7-5.05,10.14-19.1,12.89-30.04,9.85-10.25-2.85-15.53-11.39-15.52-21.68l.06-30.25c2.19-.27,4.02-.21,6.02.22l.13,33.62c.04,9.7,13.07,17.07,25.68,12.72,5.68-1.96,10.23-7.45,10.24-13.66l.08-32.46v-.02Z"/><path class="cls-1" d="M598.14,451.24c2.35-.43,4-.52,6.05-.25l-.14,32.13c-.02,5.89-2.71,11.7-7.08,15.39-8.81,7.42-25.57,7.74-34.72-.52-3.82-3.45-6.3-8.81-6.31-14.13l-.06-32.96h5.67l.13,32.91c.01,3.54,1.82,7.57,4.43,9.9,7.09,6.32,17.35,6.74,25.46,1.74,3.37-2.08,6.37-6.39,6.39-10.64l.17-33.56h.01Z"/><path class="cls-1" d="M651.56,501.75c-9.73,4.27-21.02,2.41-29.9-3.9l3.53-4.55c7.1,5.07,15.82,7.35,23.83,3.57,3.82-1.8,5.84-6.47,3.32-10.23-1.46-2.18-4.16-3.91-6.6-4.82l-9.86-3.65c-3.53-1.3-7.09-2.84-9.79-5.54-2.09-2.09-3.44-5.49-3.37-8.32.17-6.51,4.36-11.35,10.44-13.1,7.7-2.21,15.81-1.18,22.68,3.44-.49,1.76-1.61,3.19-3.07,4.44-6.05-4.09-14.89-5.28-20.65-1.24-1.93,1.36-3.22,3.38-3.3,5.63-.38,10.54,20.56,9.16,28.08,18.63,5.24,6.59,2.15,16.33-5.35,19.63h0Z"/><rect class="cls-1" x="388.29" y="450.79" width="5.79" height="52.18"/><polygon points="526.43 486.62 500.25 486.78 513.33 462.33 526.43 486.62"/><path d="M491.34,542.16c.18,2.49-2.46,4.44-4.71,4.46l-10.88.08-.09-8.51,10.57-.08c2.23-.02,4.93,1.52,5.11,4.06h0Z"/><path d="M489.92,530.72c.57,2-.75,3.64-1.89,4.96l-12.36.07.02-7.81,10.93.1c1.03,0,3.02,1.72,3.29,2.68h.01Z"/><polygon points="456.1 541.19 443.07 541.31 449.52 529.09 456.1 541.19"/><path class="cls-1" d="M490.05,426.17h-78.69v-58.34l10.45-7.97,28.5-22.59,15.41,12.07,18.82,14.75c2.03,1.42,3.7,2.87,5.51,4.78v57.32-.02ZM480.09,376.59c2.25,6.37.65,12.47.58,18.94l-.21,17.72-5.41.26-10.37-.26c-8.73,4.38-18.29,4.56-27.36.79l.13,9.86h50.32v-54.65s-9.35-7.24-9.35-7.24l-28.19-22.09-30.12,23.95-6.18,4.61c-.3,1.55-.4,3.32-.39,5.01l.09,24.42-.04,10.26.1,15.72h22.21v-10.41c-7.01-3.33-11.64-8.92-14.75-15.81-7.03-15.55,2.25-34.99,18.52-40.44,17.48-5.85,34.66,3.01,40.44,19.36h-.02ZM437.56,392.21l-.04,4.71,40.81-.02,1.46-7.93c1.46-12.72-5.68-24.45-17.38-29.7-7.86-3.52-16.63-3.09-24.71.17l-.36,3.88.35,9.59c6.15.21,10.85,5.03,9.98,10.85-.75,5-4.85,7.97-10.11,8.44h0ZM436.11,391.71c-4.36-1.18-7.59-5.22-7.38-9.53s3.25-7.64,7.36-8.97c.37-4.25.25-8.35-.5-12.68-6.36,3.7-10.68,8.84-13.4,15-2.5,7.14-2.81,14.49.18,21.42l13.51-.05.22-5.19h.01ZM435.87,411.61l.04-13.25-12.82.16c1.69,3.64,3.51,5.79,5.84,8.26,1.96,2,4.18,3.56,6.95,4.83h-.01ZM476.64,398.42h-39.15l-.17,13.4c1.84,1.52,4.32,2.4,6.7,2.86,13.19,2.58,27.59-3.27,32.61-16.26h.01ZM479.08,411.63l-.36-13.44c-3.05,5.93-5.97,9.41-10.75,13.52l11.12-.07h-.01Z"/><path d="M480.09,376.59c-5.77-16.35-22.95-25.21-40.44-19.36-16.27,5.45-25.55,24.88-18.52,40.44,3.11,6.89,7.74,12.48,14.76,15.81v10.42h-22.22l-.1-15.72.04-10.26-.09-24.42c0-1.69.09-3.46.39-5.01l6.18-4.61,30.12-23.95,28.19,22.09,9.34,7.24v54.65h-50.31l-.13-9.86c9.07,3.76,18.63,3.58,27.36-.79l10.37.26,5.41-.26.21-17.72c.08-6.46,1.67-12.57-.58-18.94h.02Z"/><path d="M437.56,392.21c5.26-.47,9.36-3.44,10.11-8.44.87-5.82-3.84-10.64-9.98-10.85l-.35-9.59.36-3.88c8.09-3.26,16.86-3.69,24.71-.17,11.7,5.24,18.84,16.97,17.38,29.7l-1.46,7.93-40.81.02.04-4.71h0Z"/><path d="M476.64,398.42c-5.02,12.99-19.42,18.84-32.61,16.26-2.39-.47-4.87-1.34-6.7-2.86l.17-13.4h39.15-.01Z"/><path d="M436.11,391.71l-.22,5.19-13.51.05c-2.99-6.93-2.69-14.28-.18-21.42,2.72-6.16,7.04-11.3,13.4-15,.75,4.33.87,8.43.5,12.68-4.11,1.34-7.14,4.54-7.36,8.97s3.02,8.35,7.38,9.53h-.01Z"/><path d="M435.87,411.61c-2.77-1.27-4.99-2.83-6.95-4.83-2.33-2.48-4.14-4.62-5.84-8.26l12.82-.16-.04,13.25h.01Z"/><path d="M479.08,411.63l-11.12.07c4.78-4.11,7.71-7.58,10.75-13.52l.36,13.44h.01Z"/><circle class="cls-2" cx="438.31" cy="382.57" r="9.66"/></svg>