<?xml version="1.0" encoding="UTF-8"?><svg xmlns="http://www.w3.org/2000/svg" viewBox="0 0 720.07 163.93"><defs><style>.cls-1{fill:#fff;}.cls-2{fill:#f2b968;}</style></defs><rect width="720.07" height="163.93"/><g id="Capa_1"><path class="cls-1" d="M486.27,135.53c-2.15,2.56-4.26,2.96-7.14,3.02l-6.57.12-4.19.15c-.58.02-1.41-.27-1.72-.73l.07-22.58h12.48c2.25,0,4.96,1.42,6.21,3.2,1.92,2.74.69,6.19-1.69,8.23,1.51,1.06,2.96,2.3,3.38,3.48.58,1.63.13,3.98-.84,5.13v-.02ZM483.31,120.57c-.27-.96-2.26-2.67-3.29-2.68l-10.93-.1-.02,7.81,12.36-.07c1.14-1.32,2.45-2.96,1.89-4.96h-.01ZM484.73,132.01c-.19-2.54-2.89-4.08-5.11-4.06l-10.57.08.09,8.51,10.88-.08c2.26-.02,4.9-1.97,4.71-4.46h0Z"/><path class="cls-1" d="M450.83,133.31l-2.88.27-12.88.1-2.61,4.57c-.28.49-2.28.24-2.53-.23l8.17-15.14,4.81-8.01,2.52,3.61,10.03,18.21c.32.58.6,1.4.48,1.86-.13.55-1.98.39-2.28-.15l-2.85-5.08h.02ZM449.49,131.04l-6.58-12.1-6.45,12.22,13.03-.12Z"/><path class="cls-1" d="M419.36,136.52l1.78-.18c.35-.03.57,1.08.4,1.4-.22.4-1.24,1.09-1.75,1.09l-16.4-.03-.03-22.72c0-.62,2.15-.76,2.74-.3l.08,20.74h13.18Z"/><path class="cls-1" d="M356.75,40.66v54.43l-13.76-13.39-15.23-15.47-3.1-3.15-11.12-10.95-.09,40.13-5.64.51-.03-53.51c.65-.16,1.95.03,2.31.4l7,7.44,8.9,8.89,9.58,9.62,4.37,4.29,5.96,5.98,5.06,4.42.07-39.18,5.73-.45h0Z"/><path class="cls-1" d="M460.39,92.34c-1.81.83-4.05.7-6.1-.07l.09-14.26.14-8.16h-37.22l-.05,22.57-5.75.07v-51.4c1.88-.44,3.54-.46,5.74-.28l.07,23.27,36.94.03v-17.77l.55-5.68,5.58.14v51.56-.02Z"/><path class="cls-1" d="M528.78,92.87l-5.82-10.55-32.74-.04-5.93,10.49-6.22-.09,5.8-10.49,21.87-40.45c.33-.62,1.19-1.43,1.44-1l5.84,10.56,9.04,16.96,13.15,24.51-6.41.11h-.02ZM519.82,76.47l-13.1-24.28-13.08,24.45,26.18-.16h0Z"/><path class="cls-1" d="M277.15,41.26c1.94-.76,3.87-.75,6.11-.43l-.05,32.39c0,3.27-1.29,6.83-2.71,9.7-5.05,10.14-19.1,12.89-30.04,9.85-10.25-2.85-15.53-11.39-15.52-21.68l.06-30.25c2.19-.27,4.02-.21,6.02.22l.13,33.62c.04,9.7,13.07,17.07,25.68,12.72,5.68-1.96,10.23-7.45,10.24-13.66l.08-32.46v-.02Z"/><path class="cls-1" d="M591.53,41.09c2.35-.43,4-.52,6.05-.25l-.14,32.13c-.02,5.89-2.71,11.7-7.08,15.39-8.81,7.42-25.57,7.74-34.72-.52-3.82-3.45-6.3-8.81-6.31-14.13l-.06-32.96h5.67l.13,32.91c.01,3.54,1.82,7.57,4.43,9.9,7.09,6.32,17.35,6.74,25.46,1.74,3.37-2.08,6.37-6.39,6.39-10.64l.17-33.56h.01Z"/><path class="cls-1" d="M644.95,91.6c-9.73,4.27-21.02,2.41-29.9-3.9l3.53-4.55c7.1,5.07,15.82,7.35,23.83,3.57,3.82-1.8,5.84-6.47,3.32-10.23-1.46-2.18-4.16-3.91-6.6-4.82l-9.86-3.65c-3.53-1.3-7.09-2.84-9.79-5.54-2.09-2.09-3.44-5.49-3.37-8.32.17-6.51,4.36-11.35,10.44-13.1,7.7-2.21,15.81-1.18,22.68,3.44-.49,1.76-1.61,3.19-3.07,4.44-6.05-4.09-14.89-5.28-20.65-1.24-1.93,1.36-3.22,3.38-3.3,5.63-.38,10.54,20.56,9.16,28.08,18.63,5.24,6.59,2.15,16.33-5.35,19.63h0Z"/><rect class="cls-1" x="381.68" y="40.64" width="5.79" height="52.18"/><polygon points="519.82 76.47 493.64 76.63 506.72 52.18 519.82 76.47"/><path d="M484.73,132.01c.18,2.49-2.46,4.44-4.71,4.46l-10.88.08-.09-8.51,10.57-.08c2.23-.02,4.93,1.52,5.11,4.06h0Z"/><path d="M483.31,120.57c.57,2-.75,3.64-1.89,4.96l-12.36.07.02-7.81,10.93.1c1.03,0,3.02,1.72,3.29,2.68h.01Z"/><polygon points="449.49 131.04 436.46 131.16 442.91 118.94 449.49 131.04"/><path class="cls-1" d="M163.95,138.8H58.51v-73.37l14-10.02,38.19-28.41,20.65,15.18,25.22,18.55c2.72,1.79,4.96,3.61,7.38,6.01v72.08-.03ZM150.6,76.45c3.01,8.01.87,15.68.78,23.82l-.28,22.28-7.25.33-13.9-.33c-11.7,5.51-24.51,5.73-36.66.99l.17,12.4h67.43v-68.73s-12.53-9.1-12.53-9.1l-37.77-27.78-40.36,30.12-8.28,5.8c-.4,1.95-.54,4.18-.52,6.3l.12,30.71-.05,12.9.13,19.77h29.76v-13.09c-9.39-4.19-15.6-11.22-19.76-19.88-9.42-19.55,3.01-44,24.82-50.86,23.42-7.36,46.44,3.79,54.19,24.35h-.03ZM93.61,96.09l-.05,5.92,54.68-.03,1.96-9.97c1.96-16-7.61-30.75-23.29-37.35-10.53-4.43-22.28-3.89-33.11.21l-.48,4.88.47,12.06c8.24.26,14.54,6.33,13.37,13.64-1,6.29-6.5,10.02-13.55,10.61h0ZM91.67,95.46c-5.84-1.48-10.17-6.56-9.89-11.98s4.35-9.61,9.86-11.28c.5-5.34.33-10.5-.67-15.95-8.52,4.65-14.31,11.12-17.96,18.86-3.35,8.98-3.77,18.22.24,26.94l18.1-.06.29-6.53h.01ZM91.35,120.49l.05-16.66-17.18.2c2.26,4.58,4.7,7.28,7.83,10.39,2.63,2.52,5.6,4.48,9.31,6.07h-.01ZM145.98,103.9h-52.46l-.23,16.85c2.47,1.91,5.79,3.02,8.98,3.6,17.67,3.24,36.97-4.11,43.7-20.45h.01ZM149.25,120.51l-.48-16.9c-4.09,7.46-8,11.83-14.4,17l14.9-.09h-.01Z"/><path d="M150.6,76.45c-7.73-20.56-30.75-31.7-54.19-24.35-21.8,6.85-34.24,31.29-24.82,50.86,4.17,8.66,10.37,15.69,19.78,19.88v13.1h-29.77l-.13-19.77.05-12.9-.12-30.71c0-2.13.12-4.35.52-6.3l8.28-5.8,40.36-30.12,37.77,27.78,12.52,9.1v68.73h-67.41l-.17-12.4c12.15,4.73,24.96,4.5,36.66-.99l13.9.33,7.25-.33.28-22.28c.11-8.12,2.24-15.81-.78-23.82h.03Z"/><path d="M93.61,96.09c7.05-.59,12.54-4.33,13.55-10.61,1.17-7.32-5.15-13.38-13.37-13.64l-.47-12.06.48-4.88c10.84-4.1,22.59-4.64,33.11-.21,15.68,6.59,25.25,21.34,23.29,37.35l-1.96,9.97-54.68.03.05-5.92h0Z"/><path d="M145.98,103.9c-6.73,16.34-26.02,23.69-43.7,20.45-3.2-.59-6.53-1.69-8.98-3.6l.23-16.85h52.46-.01Z"/><path d="M91.67,95.46l-.29,6.53-18.1.06c-4.01-8.71-3.6-17.96-.24-26.94,3.64-7.75,9.43-14.21,17.96-18.86,1,5.45,1.17,10.6.67,15.95-5.51,1.69-9.57,5.71-9.86,11.28s4.05,10.5,9.89,11.98h-.01Z"/><path d="M91.35,120.49c-3.71-1.6-6.69-3.56-9.31-6.07-3.12-3.12-5.55-5.81-7.83-10.39l17.18-.2-.05,16.66h.01Z"/><path d="M149.25,120.51l-14.9.09c6.41-5.17,10.33-9.53,14.4-17l.48,16.9h.01Z"/><ellipse class="cls-2" cx="94.61" cy="83.97" rx="12.94" ry="12.15"/></g></svg>